<svg xmlns="http://www.w3.org/2000/svg" xmlns:xlink="http://www.w3.org/1999/xlink" width="500" zoomAndPan="magnify" viewBox="0 0 375 374.999991" height="500" preserveAspectRatio="xMidYMid meet" version="1.0"><defs><g/></defs><g fill="#000000" fill-opacity="1"><g transform="translate(170.631819, 228.006558)"><g><path d="M 4.921875 0 L 4.921875 -0.984375 C 5.753906 -1.222656 6.4375 -1.625 6.96875 -2.1875 C 7.507812 -2.75 7.894531 -3.726562 8.125 -5.125 C 8.363281 -6.53125 8.484375 -8.601562 8.484375 -11.34375 L 8.484375 -51.203125 C 8.484375 -53.941406 8.363281 -56.007812 8.125 -57.40625 C 7.894531 -58.8125 7.507812 -59.8125 6.96875 -60.40625 C 6.4375 -61 5.753906 -61.382812 4.921875 -61.5625 L 4.921875 -62.546875 L 24.578125 -62.546875 C 30.953125 -62.546875 35.671875 -61.488281 38.734375 -59.375 C 41.804688 -57.257812 43.34375 -54.382812 43.34375 -50.75 C 43.34375 -47.71875 42.296875 -44.945312 40.203125 -42.4375 C 38.117188 -39.9375 34.816406 -38.242188 30.296875 -37.359375 C 35.117188 -37.054688 38.957031 -36.070312 41.8125 -34.40625 C 44.675781 -32.738281 46.765625 -30.648438 48.078125 -28.140625 C 49.390625 -25.640625 50.046875 -22.960938 50.046875 -20.109375 C 50.097656 -17.722656 49.644531 -15.335938 48.6875 -12.953125 C 47.738281 -10.566406 46.175781 -8.40625 44 -6.46875 C 41.832031 -4.539062 38.945312 -2.976562 35.34375 -1.78125 C 31.738281 -0.59375 27.253906 0 21.890625 0 Z M 13.5 -9.03125 C 13.5 -5.8125 13.796875 -3.707031 14.390625 -2.71875 C 14.984375 -1.738281 16.234375 -1.25 18.140625 -1.25 L 22.703125 -1.25 C 28.179688 -1.25 32.515625 -2.007812 35.703125 -3.53125 C 38.890625 -5.050781 41.148438 -7.132812 42.484375 -9.78125 C 43.828125 -12.4375 44.5 -15.488281 44.5 -18.9375 C 44.5 -22.21875 43.859375 -25.15625 42.578125 -27.75 C 41.296875 -30.34375 39.269531 -32.394531 36.5 -33.90625 C 33.726562 -35.425781 30.082031 -36.1875 25.5625 -36.1875 L 13.5 -36.1875 Z M 13.5 -37.359375 L 22.25 -37.359375 C 26.0625 -37.359375 29.097656 -37.90625 31.359375 -39 C 33.628906 -40.101562 35.269531 -41.578125 36.28125 -43.421875 C 37.289062 -45.273438 37.796875 -47.332031 37.796875 -49.59375 C 37.796875 -53.101562 36.617188 -55.945312 34.265625 -58.125 C 31.910156 -60.300781 28.382812 -61.390625 23.6875 -61.390625 L 13.5 -61.390625 Z M 13.5 -37.359375 "/></g></g></g><g fill="#ffffff" fill-opacity="1"><g transform="translate(172.744066, 224.195955)"><g><path d="M 4.921875 0 L 4.921875 -0.984375 C 5.753906 -1.222656 6.4375 -1.625 6.96875 -2.1875 C 7.507812 -2.75 7.894531 -3.726562 8.125 -5.125 C 8.363281 -6.53125 8.484375 -8.601562 8.484375 -11.34375 L 8.484375 -51.203125 C 8.484375 -53.941406 8.363281 -56.007812 8.125 -57.40625 C 7.894531 -58.8125 7.507812 -59.8125 6.96875 -60.40625 C 6.4375 -61 5.753906 -61.382812 4.921875 -61.5625 L 4.921875 -62.546875 L 24.578125 -62.546875 C 30.953125 -62.546875 35.671875 -61.488281 38.734375 -59.375 C 41.804688 -57.257812 43.34375 -54.382812 43.34375 -50.75 C 43.34375 -47.71875 42.296875 -44.945312 40.203125 -42.4375 C 38.117188 -39.9375 34.816406 -38.242188 30.296875 -37.359375 C 35.117188 -37.054688 38.957031 -36.070312 41.8125 -34.40625 C 44.675781 -32.738281 46.765625 -30.648438 48.078125 -28.140625 C 49.390625 -25.640625 50.046875 -22.960938 50.046875 -20.109375 C 50.097656 -17.722656 49.644531 -15.335938 48.6875 -12.953125 C 47.738281 -10.566406 46.175781 -8.40625 44 -6.46875 C 41.832031 -4.539062 38.945312 -2.976562 35.34375 -1.78125 C 31.738281 -0.59375 27.253906 0 21.890625 0 Z M 13.5 -9.03125 C 13.5 -5.8125 13.796875 -3.707031 14.390625 -2.71875 C 14.984375 -1.738281 16.234375 -1.25 18.140625 -1.25 L 22.703125 -1.25 C 28.179688 -1.25 32.515625 -2.007812 35.703125 -3.53125 C 38.890625 -5.050781 41.148438 -7.132812 42.484375 -9.78125 C 43.828125 -12.4375 44.5 -15.488281 44.5 -18.9375 C 44.5 -22.21875 43.859375 -25.15625 42.578125 -27.75 C 41.296875 -30.34375 39.269531 -32.394531 36.5 -33.90625 C 33.726562 -35.425781 30.082031 -36.1875 25.5625 -36.1875 L 13.5 -36.1875 Z M 13.5 -37.359375 L 22.25 -37.359375 C 26.0625 -37.359375 29.097656 -37.90625 31.359375 -39 C 33.628906 -40.101562 35.269531 -41.578125 36.28125 -43.421875 C 37.289062 -45.273438 37.796875 -47.332031 37.796875 -49.59375 C 37.796875 -53.101562 36.617188 -55.945312 34.265625 -58.125 C 31.910156 -60.300781 28.382812 -61.390625 23.6875 -61.390625 L 13.5 -61.390625 Z M 13.5 -37.359375 "/></g></g></g><g fill="#000000" fill-opacity="1"><g transform="translate(148.196128, 209.438227)"><g><path d="M 4.921875 0 L 4.921875 -0.984375 C 5.753906 -1.222656 6.4375 -1.625 6.96875 -2.1875 C 7.507812 -2.75 7.894531 -3.726562 8.125 -5.125 C 8.363281 -6.53125 8.484375 -8.601562 8.484375 -11.34375 L 8.484375 -51.203125 C 8.484375 -53.941406 8.363281 -56.007812 8.125 -57.40625 C 7.894531 -58.8125 7.507812 -59.8125 6.96875 -60.40625 C 6.4375 -61 5.753906 -61.382812 4.921875 -61.5625 L 4.921875 -62.546875 L 22.34375 -62.546875 C 27.882812 -62.546875 32.410156 -61.769531 35.921875 -60.21875 C 39.429688 -58.675781 42.019531 -56.546875 43.6875 -53.828125 C 45.363281 -51.117188 46.203125 -48.066406 46.203125 -44.671875 C 46.203125 -38.359375 44.023438 -33.503906 39.671875 -30.109375 C 35.328125 -26.710938 29.460938 -25.015625 22.078125 -25.015625 L 13.5 -25.015625 L 13.5 -11.34375 C 13.5 -8.601562 13.613281 -6.53125 13.84375 -5.125 C 14.082031 -3.726562 14.46875 -2.75 15 -2.1875 C 15.539062 -1.625 16.226562 -1.222656 17.0625 -0.984375 L 17.0625 0 Z M 13.5 -26.265625 L 22.078125 -26.265625 C 27.734375 -26.265625 32.242188 -27.648438 35.609375 -30.421875 C 38.972656 -33.191406 40.65625 -37.347656 40.65625 -42.890625 C 40.65625 -48.734375 38.765625 -53.257812 34.984375 -56.46875 C 31.203125 -59.6875 25.644531 -61.296875 18.3125 -61.296875 C 17.539062 -61.296875 16.753906 -61.28125 15.953125 -61.25 C 15.148438 -61.226562 14.332031 -61.1875 13.5 -61.125 Z M 13.5 -26.265625 "/></g></g></g><g fill="#ffffff" fill-opacity="1"><g transform="translate(150.308373, 205.627634)"><g><path d="M 4.921875 0 L 4.921875 -0.984375 C 5.753906 -1.222656 6.4375 -1.625 6.96875 -2.1875 C 7.507812 -2.75 7.894531 -3.726562 8.125 -5.125 C 8.363281 -6.53125 8.484375 -8.601562 8.484375 -11.34375 L 8.484375 -51.203125 C 8.484375 -53.941406 8.363281 -56.007812 8.125 -57.40625 C 7.894531 -58.8125 7.507812 -59.8125 6.96875 -60.40625 C 6.4375 -61 5.753906 -61.382812 4.921875 -61.5625 L 4.921875 -62.546875 L 22.34375 -62.546875 C 27.882812 -62.546875 32.410156 -61.769531 35.921875 -60.21875 C 39.429688 -58.675781 42.019531 -56.546875 43.6875 -53.828125 C 45.363281 -51.117188 46.203125 -48.066406 46.203125 -44.671875 C 46.203125 -38.359375 44.023438 -33.503906 39.671875 -30.109375 C 35.328125 -26.710938 29.460938 -25.015625 22.078125 -25.015625 L 13.5 -25.015625 L 13.5 -11.34375 C 13.5 -8.601562 13.613281 -6.53125 13.84375 -5.125 C 14.082031 -3.726562 14.46875 -2.75 15 -2.1875 C 15.539062 -1.625 16.226562 -1.222656 17.0625 -0.984375 L 17.0625 0 Z M 13.5 -26.265625 L 22.078125 -26.265625 C 27.734375 -26.265625 32.242188 -27.648438 35.609375 -30.421875 C 38.972656 -33.191406 40.65625 -37.347656 40.65625 -42.890625 C 40.65625 -48.734375 38.765625 -53.257812 34.984375 -56.46875 C 31.203125 -59.6875 25.644531 -61.296875 18.3125 -61.296875 C 17.539062 -61.296875 16.753906 -61.28125 15.953125 -61.25 C 15.148438 -61.226562 14.332031 -61.1875 13.5 -61.125 Z M 13.5 -26.265625 "/></g></g></g></svg>