<svg xmlns="http://www.w3.org/2000/svg" xmlns:xlink="http://www.w3.org/1999/xlink" width="50" zoomAndPan="magnify" viewBox="0 0 37.5 37.499999" height="50" preserveAspectRatio="xMidYMid meet" version="1.0"><defs><g/><clipPath id="a30712f138"><path d="M 13 11 L 33 11 L 33 37.007812 L 13 37.007812 Z M 13 11 " clip-rule="nonzero"/></clipPath></defs><g clip-path="url(#a30712f138)"><g fill="#000000" fill-opacity="1"><g transform="translate(11.45679, 37.799038)"><g><path d="M 2.078125 0 L 2.078125 -0.421875 C 2.429688 -0.515625 2.71875 -0.679688 2.9375 -0.921875 C 3.164062 -1.160156 3.332031 -1.578125 3.4375 -2.171875 C 3.539062 -2.765625 3.59375 -3.640625 3.59375 -4.796875 L 3.59375 -21.65625 C 3.59375 -22.8125 3.539062 -23.6875 3.4375 -24.28125 C 3.332031 -24.875 3.164062 -25.296875 2.9375 -25.546875 C 2.71875 -25.796875 2.429688 -25.960938 2.078125 -26.046875 L 2.078125 -26.453125 L 10.390625 -26.453125 C 13.085938 -26.453125 15.082031 -26.003906 16.375 -25.109375 C 17.675781 -24.222656 18.328125 -23.007812 18.328125 -21.46875 C 18.328125 -20.1875 17.882812 -19.015625 17 -17.953125 C 16.125 -16.890625 14.726562 -16.171875 12.8125 -15.796875 C 14.851562 -15.671875 16.476562 -15.253906 17.6875 -14.546875 C 18.894531 -13.847656 19.773438 -12.96875 20.328125 -11.90625 C 20.890625 -10.84375 21.171875 -9.707031 21.171875 -8.5 C 21.191406 -7.5 21 -6.492188 20.59375 -5.484375 C 20.195312 -4.472656 19.535156 -3.554688 18.609375 -2.734375 C 17.691406 -1.921875 16.46875 -1.257812 14.9375 -0.75 C 13.414062 -0.25 11.523438 0 9.265625 0 Z M 5.703125 -3.8125 C 5.703125 -2.457031 5.828125 -1.570312 6.078125 -1.15625 C 6.335938 -0.738281 6.867188 -0.53125 7.671875 -0.53125 L 9.59375 -0.53125 C 11.914062 -0.53125 13.75 -0.847656 15.09375 -1.484375 C 16.445312 -2.128906 17.40625 -3.015625 17.96875 -4.140625 C 18.539062 -5.265625 18.828125 -6.554688 18.828125 -8.015625 C 18.828125 -9.398438 18.554688 -10.640625 18.015625 -11.734375 C 17.472656 -12.828125 16.613281 -13.695312 15.4375 -14.34375 C 14.269531 -14.988281 12.726562 -15.3125 10.8125 -15.3125 L 5.703125 -15.3125 Z M 5.703125 -15.796875 L 9.40625 -15.796875 C 11.019531 -15.796875 12.304688 -16.03125 13.265625 -16.5 C 14.222656 -16.96875 14.914062 -17.59375 15.34375 -18.375 C 15.769531 -19.15625 15.984375 -20.023438 15.984375 -20.984375 C 15.984375 -22.460938 15.484375 -23.660156 14.484375 -24.578125 C 13.492188 -25.503906 12.003906 -25.96875 10.015625 -25.96875 L 5.703125 -25.96875 Z M 5.703125 -15.796875 "/></g></g></g></g><g fill="#ffffff" fill-opacity="1"><g transform="translate(12.350079, 36.187503)"><g><path d="M 2.078125 0 L 2.078125 -0.421875 C 2.429688 -0.515625 2.71875 -0.679688 2.9375 -0.921875 C 3.164062 -1.160156 3.332031 -1.578125 3.4375 -2.171875 C 3.539062 -2.765625 3.59375 -3.640625 3.59375 -4.796875 L 3.59375 -21.65625 C 3.59375 -22.8125 3.539062 -23.6875 3.4375 -24.28125 C 3.332031 -24.875 3.164062 -25.296875 2.9375 -25.546875 C 2.71875 -25.796875 2.429688 -25.960938 2.078125 -26.046875 L 2.078125 -26.453125 L 10.390625 -26.453125 C 13.085938 -26.453125 15.082031 -26.003906 16.375 -25.109375 C 17.675781 -24.222656 18.328125 -23.007812 18.328125 -21.46875 C 18.328125 -20.1875 17.882812 -19.015625 17 -17.953125 C 16.125 -16.890625 14.726562 -16.171875 12.8125 -15.796875 C 14.851562 -15.671875 16.476562 -15.253906 17.6875 -14.546875 C 18.894531 -13.847656 19.773438 -12.96875 20.328125 -11.90625 C 20.890625 -10.84375 21.171875 -9.707031 21.171875 -8.5 C 21.191406 -7.5 21 -6.492188 20.59375 -5.484375 C 20.195312 -4.472656 19.535156 -3.554688 18.609375 -2.734375 C 17.691406 -1.921875 16.46875 -1.257812 14.9375 -0.75 C 13.414062 -0.25 11.523438 0 9.265625 0 Z M 5.703125 -3.8125 C 5.703125 -2.457031 5.828125 -1.570312 6.078125 -1.15625 C 6.335938 -0.738281 6.867188 -0.53125 7.671875 -0.53125 L 9.59375 -0.53125 C 11.914062 -0.53125 13.75 -0.847656 15.09375 -1.484375 C 16.445312 -2.128906 17.40625 -3.015625 17.96875 -4.140625 C 18.539062 -5.265625 18.828125 -6.554688 18.828125 -8.015625 C 18.828125 -9.398438 18.554688 -10.640625 18.015625 -11.734375 C 17.472656 -12.828125 16.613281 -13.695312 15.4375 -14.34375 C 14.269531 -14.988281 12.726562 -15.3125 10.8125 -15.3125 L 5.703125 -15.3125 Z M 5.703125 -15.796875 L 9.40625 -15.796875 C 11.019531 -15.796875 12.304688 -16.03125 13.265625 -16.5 C 14.222656 -16.96875 14.914062 -17.59375 15.34375 -18.375 C 15.769531 -19.15625 15.984375 -20.023438 15.984375 -20.984375 C 15.984375 -22.460938 15.484375 -23.660156 14.484375 -24.578125 C 13.492188 -25.503906 12.003906 -25.96875 10.015625 -25.96875 L 5.703125 -25.96875 Z M 5.703125 -15.796875 "/></g></g></g><g fill="#000000" fill-opacity="1"><g transform="translate(4.061415, 27.636305)"><g><path d="M 2.078125 0 L 2.078125 -0.421875 C 2.429688 -0.515625 2.71875 -0.679688 2.9375 -0.921875 C 3.164062 -1.160156 3.332031 -1.578125 3.4375 -2.171875 C 3.539062 -2.765625 3.59375 -3.640625 3.59375 -4.796875 L 3.59375 -21.65625 C 3.59375 -22.8125 3.539062 -23.679688 3.4375 -24.265625 C 3.332031 -24.859375 3.164062 -25.28125 2.9375 -25.53125 C 2.71875 -25.789062 2.429688 -25.957031 2.078125 -26.03125 L 2.078125 -26.453125 L 9.4375 -26.453125 C 11.78125 -26.453125 13.695312 -26.125 15.1875 -25.46875 C 16.675781 -24.8125 17.769531 -23.910156 18.46875 -22.765625 C 19.175781 -21.617188 19.53125 -20.328125 19.53125 -18.890625 C 19.53125 -16.222656 18.609375 -14.171875 16.765625 -12.734375 C 14.929688 -11.296875 12.453125 -10.578125 9.328125 -10.578125 L 5.703125 -10.578125 L 5.703125 -4.796875 C 5.703125 -3.640625 5.75 -2.765625 5.84375 -2.171875 C 5.945312 -1.578125 6.113281 -1.160156 6.34375 -0.921875 C 6.570312 -0.679688 6.863281 -0.515625 7.21875 -0.421875 L 7.21875 0 Z M 5.703125 -11.109375 L 9.328125 -11.109375 C 11.722656 -11.109375 13.628906 -11.691406 15.046875 -12.859375 C 16.472656 -14.035156 17.1875 -15.796875 17.1875 -18.140625 C 17.1875 -20.609375 16.382812 -22.519531 14.78125 -23.875 C 13.1875 -25.238281 10.84375 -25.921875 7.75 -25.921875 C 7.414062 -25.921875 7.078125 -25.910156 6.734375 -25.890625 C 6.398438 -25.878906 6.054688 -25.863281 5.703125 -25.84375 Z M 5.703125 -11.109375 "/></g></g></g><g fill="#ffffff" fill-opacity="1"><g transform="translate(4.95466, 26.024848)"><g><path d="M 2.078125 0 L 2.078125 -0.421875 C 2.429688 -0.515625 2.71875 -0.679688 2.9375 -0.921875 C 3.164062 -1.160156 3.332031 -1.578125 3.4375 -2.171875 C 3.539062 -2.765625 3.59375 -3.640625 3.59375 -4.796875 L 3.59375 -21.65625 C 3.59375 -22.8125 3.539062 -23.679688 3.4375 -24.265625 C 3.332031 -24.859375 3.164062 -25.28125 2.9375 -25.53125 C 2.71875 -25.789062 2.429688 -25.957031 2.078125 -26.03125 L 2.078125 -26.453125 L 9.4375 -26.453125 C 11.78125 -26.453125 13.695312 -26.125 15.1875 -25.46875 C 16.675781 -24.8125 17.769531 -23.910156 18.46875 -22.765625 C 19.175781 -21.617188 19.53125 -20.328125 19.53125 -18.890625 C 19.53125 -16.222656 18.609375 -14.171875 16.765625 -12.734375 C 14.929688 -11.296875 12.453125 -10.578125 9.328125 -10.578125 L 5.703125 -10.578125 L 5.703125 -4.796875 C 5.703125 -3.640625 5.75 -2.765625 5.84375 -2.171875 C 5.945312 -1.578125 6.113281 -1.160156 6.34375 -0.921875 C 6.570312 -0.679688 6.863281 -0.515625 7.21875 -0.421875 L 7.21875 0 Z M 5.703125 -11.109375 L 9.328125 -11.109375 C 11.722656 -11.109375 13.628906 -11.691406 15.046875 -12.859375 C 16.472656 -14.035156 17.1875 -15.796875 17.1875 -18.140625 C 17.1875 -20.609375 16.382812 -22.519531 14.78125 -23.875 C 13.1875 -25.238281 10.84375 -25.921875 7.75 -25.921875 C 7.414062 -25.921875 7.078125 -25.910156 6.734375 -25.890625 C 6.398438 -25.878906 6.054688 -25.863281 5.703125 -25.84375 Z M 5.703125 -11.109375 "/></g></g></g></svg>