<svg xmlns="http://www.w3.org/2000/svg" xmlns:xlink="http://www.w3.org/1999/xlink" width="800" zoomAndPan="magnify" viewBox="0 0 600 599.999999" height="800" preserveAspectRatio="xMidYMid meet" version="1.0"><defs><g/></defs><g fill="#755744" fill-opacity="1"><g transform="translate(207.991062, 529.623077)"><g><path d="M 26.40625 0 L 26.40625 -5.28125 C 30.882812 -6.5625 34.5625 -8.71875 37.4375 -11.75 C 40.320312 -14.789062 42.398438 -20.070312 43.671875 -27.59375 C 44.953125 -35.113281 45.59375 -46.234375 45.59375 -60.953125 L 45.59375 -275.046875 C 45.59375 -289.765625 44.953125 -300.882812 43.671875 -308.40625 C 42.398438 -315.925781 40.320312 -321.285156 37.4375 -324.484375 C 34.5625 -327.679688 30.882812 -329.757812 26.40625 -330.71875 L 26.40625 -336 L 132 -336 C 166.238281 -336 191.597656 -330.316406 208.078125 -318.953125 C 224.554688 -307.597656 232.796875 -292.160156 232.796875 -272.640625 C 232.796875 -256.316406 227.195312 -241.4375 216 -228 C 204.800781 -214.5625 187.039062 -205.441406 162.71875 -200.640625 C 188.632812 -199.035156 209.273438 -193.753906 224.640625 -184.796875 C 240.003906 -175.835938 251.203125 -164.640625 258.234375 -151.203125 C 265.273438 -137.765625 268.796875 -123.363281 268.796875 -108 C 269.117188 -95.195312 266.71875 -82.394531 261.59375 -69.59375 C 256.476562 -56.800781 248.078125 -45.203125 236.390625 -34.796875 C 224.710938 -24.398438 209.191406 -16 189.828125 -9.59375 C 170.472656 -3.195312 146.394531 0 117.59375 0 Z M 72.484375 -48.484375 C 72.484375 -31.203125 74.082031 -19.921875 77.28125 -14.640625 C 80.476562 -9.359375 87.195312 -6.71875 97.4375 -6.71875 L 121.921875 -6.71875 C 151.359375 -6.71875 174.632812 -10.796875 191.75 -18.953125 C 208.875 -27.117188 221.035156 -38.320312 228.234375 -52.5625 C 235.441406 -66.800781 239.046875 -83.203125 239.046875 -101.765625 C 239.046875 -119.359375 235.601562 -135.113281 228.71875 -149.03125 C 221.84375 -162.957031 210.960938 -174 196.078125 -182.15625 C 181.203125 -190.320312 161.601562 -194.40625 137.28125 -194.40625 L 72.484375 -194.40625 Z M 72.484375 -200.640625 L 119.515625 -200.640625 C 139.992188 -200.640625 156.3125 -203.597656 168.46875 -209.515625 C 180.632812 -215.441406 189.4375 -223.363281 194.875 -233.28125 C 200.320312 -243.195312 203.046875 -254.238281 203.046875 -266.40625 C 203.046875 -285.28125 196.722656 -300.554688 184.078125 -312.234375 C 171.441406 -323.921875 152.484375 -329.765625 127.203125 -329.765625 L 72.484375 -329.765625 Z M 72.484375 -200.640625 "/></g></g></g><g fill="#ffffff" fill-opacity="1"><g transform="translate(219.335602, 509.156977)"><g><path d="M 26.40625 0 L 26.40625 -5.28125 C 30.882812 -6.5625 34.5625 -8.71875 37.4375 -11.75 C 40.320312 -14.789062 42.398438 -20.070312 43.671875 -27.59375 C 44.953125 -35.113281 45.59375 -46.234375 45.59375 -60.953125 L 45.59375 -275.046875 C 45.59375 -289.765625 44.953125 -300.882812 43.671875 -308.40625 C 42.398438 -315.925781 40.320312 -321.285156 37.4375 -324.484375 C 34.5625 -327.679688 30.882812 -329.757812 26.40625 -330.71875 L 26.40625 -336 L 132 -336 C 166.238281 -336 191.597656 -330.316406 208.078125 -318.953125 C 224.554688 -307.597656 232.796875 -292.160156 232.796875 -272.640625 C 232.796875 -256.316406 227.195312 -241.4375 216 -228 C 204.800781 -214.5625 187.039062 -205.441406 162.71875 -200.640625 C 188.632812 -199.035156 209.273438 -193.753906 224.640625 -184.796875 C 240.003906 -175.835938 251.203125 -164.640625 258.234375 -151.203125 C 265.273438 -137.765625 268.796875 -123.363281 268.796875 -108 C 269.117188 -95.195312 266.71875 -82.394531 261.59375 -69.59375 C 256.476562 -56.800781 248.078125 -45.203125 236.390625 -34.796875 C 224.710938 -24.398438 209.191406 -16 189.828125 -9.59375 C 170.472656 -3.195312 146.394531 0 117.59375 0 Z M 72.484375 -48.484375 C 72.484375 -31.203125 74.082031 -19.921875 77.28125 -14.640625 C 80.476562 -9.359375 87.195312 -6.71875 97.4375 -6.71875 L 121.921875 -6.71875 C 151.359375 -6.71875 174.632812 -10.796875 191.75 -18.953125 C 208.875 -27.117188 221.035156 -38.320312 228.234375 -52.5625 C 235.441406 -66.800781 239.046875 -83.203125 239.046875 -101.765625 C 239.046875 -119.359375 235.601562 -135.113281 228.71875 -149.03125 C 221.84375 -162.957031 210.960938 -174 196.078125 -182.15625 C 181.203125 -190.320312 161.601562 -194.40625 137.28125 -194.40625 L 72.484375 -194.40625 Z M 72.484375 -200.640625 L 119.515625 -200.640625 C 139.992188 -200.640625 156.3125 -203.597656 168.46875 -209.515625 C 180.632812 -215.441406 189.4375 -223.363281 194.875 -233.28125 C 200.320312 -243.195312 203.046875 -254.238281 203.046875 -266.40625 C 203.046875 -285.28125 196.722656 -300.554688 184.078125 -312.234375 C 171.441406 -323.921875 152.484375 -329.765625 127.203125 -329.765625 L 72.484375 -329.765625 Z M 72.484375 -200.640625 "/></g></g></g><g fill="#755744" fill-opacity="1"><g transform="translate(101.569148, 444.066102)"><g><path d="M 26.40625 0 L 26.40625 -5.28125 C 30.882812 -6.5625 34.5625 -8.71875 37.4375 -11.75 C 40.320312 -14.789062 42.398438 -20.070312 43.671875 -27.59375 C 44.953125 -35.113281 45.59375 -46.234375 45.59375 -60.953125 L 45.59375 -275.046875 C 45.59375 -289.765625 44.953125 -300.882812 43.671875 -308.40625 C 42.398438 -315.925781 40.320312 -321.285156 37.4375 -324.484375 C 34.5625 -327.679688 30.882812 -329.757812 26.40625 -330.71875 L 26.40625 -336 L 120 -336 C 149.757812 -336 174.078125 -331.835938 192.953125 -323.515625 C 211.835938 -315.203125 225.757812 -303.765625 234.71875 -289.203125 C 243.675781 -274.640625 248.15625 -258.238281 248.15625 -240 C 248.15625 -206.082031 236.472656 -180.003906 213.109375 -161.765625 C 189.753906 -143.523438 158.238281 -134.40625 118.5625 -134.40625 L 72.484375 -134.40625 L 72.484375 -60.953125 C 72.484375 -46.234375 73.117188 -35.113281 74.390625 -27.59375 C 75.671875 -20.070312 77.75 -14.789062 80.625 -11.75 C 83.507812 -8.71875 87.195312 -6.5625 91.6875 -5.28125 L 91.6875 0 Z M 72.484375 -141.125 L 118.5625 -141.125 C 148.957031 -141.125 173.195312 -148.5625 191.28125 -163.4375 C 209.363281 -178.320312 218.40625 -200.644531 218.40625 -230.40625 C 218.40625 -261.757812 208.242188 -286.078125 187.921875 -303.359375 C 167.597656 -320.640625 137.757812 -329.28125 98.40625 -329.28125 C 94.238281 -329.28125 89.992188 -329.195312 85.671875 -329.03125 C 81.359375 -328.875 76.960938 -328.632812 72.484375 -328.3125 Z M 72.484375 -141.125 "/></g></g></g><g fill="#ffffff" fill-opacity="1"><g transform="translate(112.913695, 423.600002)"><g><path d="M 26.40625 0 L 26.40625 -5.28125 C 30.882812 -6.5625 34.5625 -8.71875 37.4375 -11.75 C 40.320312 -14.789062 42.398438 -20.070312 43.671875 -27.59375 C 44.953125 -35.113281 45.59375 -46.234375 45.59375 -60.953125 L 45.59375 -275.046875 C 45.59375 -289.765625 44.953125 -300.882812 43.671875 -308.40625 C 42.398438 -315.925781 40.320312 -321.285156 37.4375 -324.484375 C 34.5625 -327.679688 30.882812 -329.757812 26.40625 -330.71875 L 26.40625 -336 L 120 -336 C 149.757812 -336 174.078125 -331.835938 192.953125 -323.515625 C 211.835938 -315.203125 225.757812 -303.765625 234.71875 -289.203125 C 243.675781 -274.640625 248.15625 -258.238281 248.15625 -240 C 248.15625 -206.082031 236.472656 -180.003906 213.109375 -161.765625 C 189.753906 -143.523438 158.238281 -134.40625 118.5625 -134.40625 L 72.484375 -134.40625 L 72.484375 -60.953125 C 72.484375 -46.234375 73.117188 -35.113281 74.390625 -27.59375 C 75.671875 -20.070312 77.75 -14.789062 80.625 -11.75 C 83.507812 -8.71875 87.195312 -6.5625 91.6875 -5.28125 L 91.6875 0 Z M 72.484375 -141.125 L 118.5625 -141.125 C 148.957031 -141.125 173.195312 -148.5625 191.28125 -163.4375 C 209.363281 -178.320312 218.40625 -200.644531 218.40625 -230.40625 C 218.40625 -261.757812 208.242188 -286.078125 187.921875 -303.359375 C 167.597656 -320.640625 137.757812 -329.28125 98.40625 -329.28125 C 94.238281 -329.28125 89.992188 -329.195312 85.671875 -329.03125 C 81.359375 -328.875 76.960938 -328.632812 72.484375 -328.3125 Z M 72.484375 -141.125 "/></g></g></g></svg>